<?xml version="1.0" encoding="UTF-8" standalone="no"?>
<!-- Created with Inkscape (http://www.inkscape.org/) -->

<svg
   width="84.999992mm"
   height="85mm"
   viewBox="0 0 84.999992 85"
   version="1.1"
   id="svg1"
   xml:space="preserve"
   xmlns="http://www.w3.org/2000/svg"
   xmlns:svg="http://www.w3.org/2000/svg"><defs
     id="defs1" /><g
     id="layer1"
     transform="translate(-62.500008,-106)"><rect
       style="fill:#f9f9f9;stroke-width:2.53836;stroke-linecap:round;stroke-linejoin:round;paint-order:stroke fill markers"
       id="rect1"
       width="85"
       height="85"
       x="62.5"
       y="106"
       rx="10.939" /><path
       id="rect15-1"
       style="fill:#6a0dad;fill-opacity:1;fill-rule:nonzero;stroke:none;stroke-width:0.13959;stroke-dasharray:none"
       d="M 74.500084,111 C 70.622085,111 67.5,114.12209 67.5,118.00009 v 60.99982 c 0,3.878 3.122085,7.00009 7.000084,7.00009 h 61.000356 c 3.878,0 6.99956,-3.12209 6.99956,-7.00009 V 118.00009 C 142.5,114.12209 139.37844,111 135.50044,111 Z m 0,5.00021 h 61.000356 c 1.10799,0 1.99988,0.89188 1.99988,1.99988 v 60.99982 c 0,1.108 -0.89189,2.0004 -1.99988,2.0004 H 74.500084 c -1.107996,0 -1.999878,-0.8924 -1.999878,-2.0004 v -60.99982 c 0,-1.108 0.891882,-1.99988 1.999878,-1.99988 z m 3.00033,5.0002 v 25 h 25.000006 v -25 z m 29.999696,0 v 25 h 25 v -25 z m -25.000007,4.9997 H 97.50022 v 15.0001 H 82.500103 Z m 30.000217,0 h 15.0001 v 15.0001 h -15.0001 z m -25.000007,5.00021 V 136 h 4.999697 v -4.99968 z m 29.999687,0 V 136 h 5.00021 v -4.99968 z m -39.999586,19.99977 v 25.00002 h 25.000006 v -25.00002 z m 29.999696,0 v 25.00002 h 5.00021 v -9.99991 h 6.16706 3.83283 V 151.00009 H 117.5 V 161 h -4.99968 v -9.99991 z m 20.00031,0 v 5.00022 h 4.99969 v -5.00022 z m -45.000317,5.00022 H 97.50022 v 15.00011 H 82.500103 Z M 87.500313,161 v 5.0002 H 92.50001 V 161 Z m 40.000107,0 v 15.00011 h 4.99969 V 161 Z M 117.5,171.00042 v 4.99969 h 5.00021 v -4.99969 z" /></g></svg>
