<?xml version="1.0" encoding="UTF-8" standalone="no"?>
<!-- Created with Inkscape (http://www.inkscape.org/) -->

<svg
   width="84.999992mm"
   height="85mm"
   viewBox="0 0 84.999992 85"
   version="1.1"
   id="svg1"
   xml:space="preserve"
   sodipodi:docname="hisnapqr-single-logo.svg"
   inkscape:version="1.4 (86a8ad7, 2024-10-11)"
   xmlns:inkscape="http://www.inkscape.org/namespaces/inkscape"
   xmlns:sodipodi="http://sodipodi.sourceforge.net/DTD/sodipodi-0.dtd"
   xmlns="http://www.w3.org/2000/svg"
   xmlns:svg="http://www.w3.org/2000/svg"><sodipodi:namedview
     id="namedview1"
     pagecolor="#ffffff"
     bordercolor="#000000"
     borderopacity="0.25"
     inkscape:showpageshadow="2"
     inkscape:pageopacity="0.0"
     inkscape:pagecheckerboard="0"
     inkscape:deskcolor="#d1d1d1"
     inkscape:document-units="mm"
     inkscape:zoom="0.88812092"
     inkscape:cx="-40.535021"
     inkscape:cy="135.67972"
     inkscape:window-width="1920"
     inkscape:window-height="1009"
     inkscape:window-x="1912"
     inkscape:window-y="-8"
     inkscape:window-maximized="1"
     inkscape:current-layer="svg1" /><defs
     id="defs1" /><rect
     style="fill:#f9f9f9;stroke-width:2.53836;stroke-linecap:round;stroke-linejoin:round;paint-order:stroke fill markers"
     id="rect1"
     width="85"
     height="85"
     x="-8e-06"
     y="0"
     rx="10.939" /><path
     id="rect15-1"
     style="fill:#c026d3;fill-opacity:1;fill-rule:nonzero;stroke:none;stroke-width:0.13959;stroke-dasharray:none"
     d="M 12.000076,5 C 8.122077,5 4.999992,8.12209 4.999992,12.00009 v 60.99982 c 0,3.878 3.122085,7.00009 7.000084,7.00009 h 61.000356 c 3.878,0 6.99956,-3.12209 6.99956,-7.00009 V 12.00009 C 79.999992,8.12209 76.878432,5 73.000432,5 Z m 0,5.00021 h 61.000356 c 1.10799,0 1.99988,0.89188 1.99988,1.99988 v 60.99982 c 0,1.108 -0.89189,2.0004 -1.99988,2.0004 H 12.000076 c -1.107996,0 -1.999878,-0.8924 -1.999878,-2.0004 V 12.00009 c 0,-1.108 0.891882,-1.99988 1.999878,-1.99988 z m 3.00033,5.0002 v 25 h 25.000006 v -25 z m 29.999696,0 v 25 h 25 v -25 z m -25.000007,4.9997 h 15.000117 v 15.0001 H 20.000095 Z m 30.000217,0 h 15.0001 v 15.0001 h -15.0001 z M 25.000305,25.00032 V 30 h 4.999697 v -4.99968 z m 29.999687,0 V 30 h 5.00021 V 25.00032 Z M 15.000406,45.00009 V 70.00011 H 40.000412 V 45.00009 Z m 29.999696,0 v 25.00002 h 5.00021 V 60.0002 h 6.16706 3.83283 V 45.00009 h -5.00021 V 55 h -4.99968 v -9.99991 z m 20.00031,0 v 5.00022 h 4.99969 V 45.00009 Z M 20.000095,50.00031 H 35.000212 V 65.00042 H 20.000095 Z M 25.000305,55 v 5.0002 h 4.999697 V 55 Z m 40.000107,0 v 15.00011 h 4.99969 V 55 Z m -10.00042,10.00042 v 4.99969 h 5.00021 v -4.99969 z" /></svg>
